<svg width="1462" height="814" viewBox="0 0 1462 814" fill="none" xmlns="http://www.w3.org/2000/svg">
<path d="M1.94028 2.15533L55.9403 56.1553" stroke="#F8006F" stroke-width="3.5"/>
<path d="M55.9403 2.15533L109.94 56.1553" stroke="#F8006F" stroke-width="3.5"/>
<path d="M163.94 2.15533L109.94 56.1553" stroke="#F8006F" stroke-width="3.5"/>
<path d="M163.94 2.15533L217.94 56.1553" stroke="#F8006F" stroke-width="3.5"/>
<path d="M271.94 2.15533L217.94 56.1553" stroke="#F8006F" stroke-width="3.5"/>
<path d="M271.94 2.15533L325.94 56.1553" stroke="#F8006F" stroke-width="3.5"/>
<path d="M379.94 2.15533L325.94 56.1553" stroke="#F8006F" stroke-width="3.5"/>
<path d="M379.94 2.15533L433.94 56.1553" stroke="#F8006F" stroke-width="3.5"/>
<path d="M433.94 2.15533L487.94 56.1553" stroke="#F8006F" stroke-width="3.5"/>
<path d="M487.94 2.15533L541.94 56.1553" stroke="#F8006F" stroke-width="3.5"/>
<path d="M595.94 2.15533L541.94 56.1553" stroke="#F8006F" stroke-width="3.5"/>
<path d="M649.94 2.15533L595.94 56.1553" stroke="#F8006F" stroke-width="3.5"/>
<path d="M703.94 2.15533L649.94 56.1553" stroke="#F8006F" stroke-width="3.5"/>
<path d="M703.94 2.15533L757.94 56.1553" stroke="#F8006F" stroke-width="3.5"/>
<path d="M757.94 2.15533L811.94 56.1553" stroke="#F8006F" stroke-width="3.5"/>
<path d="M865.94 2.15533L811.94 56.1553" stroke="#F8006F" stroke-width="3.5"/>
<path d="M919.94 2.15533L865.94 56.1553" stroke="#F8006F" stroke-width="3.5"/>
<path d="M973.94 2.15533L919.94 56.1553" stroke="#F8006F" stroke-width="3.5"/>
<path d="M973.94 2.15533L1027.94 56.1553" stroke="#F8006F" stroke-width="3.5"/>
<path d="M1081.94 2.15533L1027.94 56.1553" stroke="#F8006F" stroke-width="3.5"/>
<path d="M1081.94 2.15533L1135.94 56.1553" stroke="#F8006F" stroke-width="3.5"/>
<path d="M1189.94 2.15533L1135.94 56.1553" stroke="#F8006F" stroke-width="3.5"/>
<path d="M1243.94 2.15533L1189.94 56.1553" stroke="#F8006F" stroke-width="3.5"/>
<path d="M1297.94 2.15533L1243.94 56.1553" stroke="#F8006F" stroke-width="3.5"/>
<path d="M1351.94 2.15533L1297.94 56.1553" stroke="#F8006F" stroke-width="3.5"/>
<path d="M1351.94 2.15533L1405.94 56.1553" stroke="#F8006F" stroke-width="3.5"/>
<path d="M1459.94 2.15533L1405.94 56.1553" stroke="#F8006F" stroke-width="3.5"/>
<path opacity="0.94" d="M55.9403 56.1553L1.94028 110.155" stroke="#F8006F" stroke-width="3.5"/>
<path opacity="0.94" d="M55.9403 56.1553L109.94 110.155" stroke="#F8006F" stroke-width="3.5"/>
<path opacity="0.94" d="M109.94 56.1553L163.94 110.155" stroke="#F8006F" stroke-width="3.5"/>
<path opacity="0.94" d="M217.94 56.1553L163.94 110.155" stroke="#F8006F" stroke-width="3.5"/>
<path opacity="0.94" d="M271.94 56.1553L217.94 110.155" stroke="#F8006F" stroke-width="3.5"/>
<path opacity="0.94" d="M325.94 56.1553L271.94 110.155" stroke="#F8006F" stroke-width="3.5"/>
<path opacity="0.94" d="M325.94 56.1553L379.94 110.155" stroke="#F8006F" stroke-width="3.5"/>
<path opacity="0.94" d="M379.94 56.1553L433.94 110.155" stroke="#F8006F" stroke-width="3.5"/>
<path opacity="0.94" d="M487.94 56.1553L433.94 110.155" stroke="#F8006F" stroke-width="3.5"/>
<path opacity="0.94" d="M487.94 56.1553L541.94 110.155" stroke="#F8006F" stroke-width="3.5"/>
<path opacity="0.94" d="M541.94 56.1553L595.94 110.155" stroke="#F8006F" stroke-width="3.5"/>
<path opacity="0.94" d="M649.94 56.1553L595.94 110.155" stroke="#F8006F" stroke-width="3.5"/>
<path opacity="0.94" d="M703.94 56.1553L649.94 110.155" stroke="#F8006F" stroke-width="3.5"/>
<path opacity="0.94" d="M703.94 56.1553L757.94 110.155" stroke="#F8006F" stroke-width="3.5"/>
<path opacity="0.94" d="M811.94 56.1553L757.94 110.155" stroke="#F8006F" stroke-width="3.5"/>
<path opacity="0.94" d="M811.94 56.1553L865.94 110.155" stroke="#F8006F" stroke-width="3.5"/>
<path opacity="0.94" d="M865.94 56.1553L919.94 110.155" stroke="#F8006F" stroke-width="3.5"/>
<path opacity="0.94" d="M973.94 56.1553L919.94 110.155" stroke="#F8006F" stroke-width="3.5"/>
<path opacity="0.94" d="M973.94 56.1553L1027.94 110.155" stroke="#F8006F" stroke-width="3.5"/>
<path opacity="0.94" d="M1027.94 56.1553L1081.94 110.155" stroke="#F8006F" stroke-width="3.5"/>
<path opacity="0.94" d="M1081.94 56.1553L1135.94 110.155" stroke="#F8006F" stroke-width="3.5"/>
<path opacity="0.94" d="M1135.94 56.1553L1189.94 110.155" stroke="#F8006F" stroke-width="3.5"/>
<path opacity="0.94" d="M1189.94 56.1553L1243.94 110.155" stroke="#F8006F" stroke-width="3.5"/>
<path opacity="0.94" d="M1297.94 56.1553L1243.94 110.155" stroke="#F8006F" stroke-width="3.5"/>
<path opacity="0.94" d="M1351.94 56.1553L1297.94 110.155" stroke="#F8006F" stroke-width="3.5"/>
<path opacity="0.94" d="M1405.94 56.1553L1351.94 110.155" stroke="#F8006F" stroke-width="3.5"/>
<path opacity="0.94" d="M1459.94 56.1553L1405.94 110.155" stroke="#F8006F" stroke-width="3.5"/>
<path opacity="0.87" d="M1.94028 110.155L55.9403 164.155" stroke="#F8006F" stroke-width="3.5"/>
<path opacity="0.87" d="M55.9403 110.155L109.94 164.155" stroke="#F8006F" stroke-width="3.5"/>
<path opacity="0.87" d="M163.94 110.155L109.94 164.155" stroke="#F8006F" stroke-width="3.5"/>
<path opacity="0.87" d="M163.94 110.155L217.94 164.155" stroke="#F8006F" stroke-width="3.5"/>
<path opacity="0.87" d="M217.94 110.155L271.94 164.155" stroke="#F8006F" stroke-width="3.5"/>
<path opacity="0.87" d="M325.94 110.155L271.94 164.155" stroke="#F8006F" stroke-width="3.5"/>
<path opacity="0.87" d="M379.94 110.155L325.94 164.155" stroke="#F8006F" stroke-width="3.5"/>
<path opacity="0.87" d="M379.94 110.155L433.94 164.155" stroke="#F8006F" stroke-width="3.5"/>
<path opacity="0.87" d="M487.94 110.155L433.94 164.155" stroke="#F8006F" stroke-width="3.5"/>
<path opacity="0.87" d="M541.94 110.155L487.94 164.155" stroke="#F8006F" stroke-width="3.5"/>
<path opacity="0.87" d="M595.94 110.155L541.94 164.155" stroke="#F8006F" stroke-width="3.5"/>
<path opacity="0.87" d="M649.94 110.155L595.94 164.155" stroke="#F8006F" stroke-width="3.5"/>
<path opacity="0.87" d="M703.94 110.155L649.94 164.155" stroke="#F8006F" stroke-width="3.5"/>
<path opacity="0.87" d="M703.94 110.155L757.94 164.155" stroke="#F8006F" stroke-width="3.5"/>
<path opacity="0.87" d="M811.94 110.155L757.94 164.155" stroke="#F8006F" stroke-width="3.5"/>
<path opacity="0.87" d="M811.94 110.155L865.94 164.155" stroke="#F8006F" stroke-width="3.5"/>
<path opacity="0.87" d="M919.94 110.155L865.94 164.155" stroke="#F8006F" stroke-width="3.5"/>
<path opacity="0.87" d="M973.94 110.155L919.94 164.155" stroke="#F8006F" stroke-width="3.5"/>
<path opacity="0.87" d="M973.94 110.155L1027.94 164.155" stroke="#F8006F" stroke-width="3.5"/>
<path opacity="0.87" d="M1081.94 110.155L1027.94 164.155" stroke="#F8006F" stroke-width="3.5"/>
<path opacity="0.87" d="M1081.94 110.155L1135.94 164.155" stroke="#F8006F" stroke-width="3.5"/>
<path opacity="0.87" d="M1189.94 110.155L1135.94 164.155" stroke="#F8006F" stroke-width="3.5"/>
<path opacity="0.87" d="M1189.94 110.155L1243.94 164.155" stroke="#F8006F" stroke-width="3.5"/>
<path opacity="0.87" d="M1297.94 110.155L1243.94 164.155" stroke="#F8006F" stroke-width="3.5"/>
<path opacity="0.87" d="M1351.94 110.155L1297.94 164.155" stroke="#F8006F" stroke-width="3.5"/>
<path opacity="0.87" d="M1351.94 110.155L1405.94 164.155" stroke="#F8006F" stroke-width="3.5"/>
<path opacity="0.87" d="M1459.94 110.155L1405.94 164.155" stroke="#F8006F" stroke-width="3.5"/>
<path opacity="0.81" d="M55.9403 164.155L1.94028 218.155" stroke="#F8006F" stroke-width="3.5"/>
<path opacity="0.81" d="M109.94 164.155L55.9403 218.155" stroke="#F8006F" stroke-width="3.5"/>
<path opacity="0.81" d="M163.94 164.155L109.94 218.155" stroke="#F8006F" stroke-width="3.5"/>
<path opacity="0.81" d="M217.94 164.155L163.94 218.155" stroke="#F8006F" stroke-width="3.5"/>
<path opacity="0.81" d="M271.94 164.155L217.94 218.155" stroke="#F8006F" stroke-width="3.5"/>
<path opacity="0.81" d="M271.94 164.155L325.94 218.155" stroke="#F8006F" stroke-width="3.5"/>
<path opacity="0.81" d="M325.94 164.155L379.94 218.155" stroke="#F8006F" stroke-width="3.5"/>
<path opacity="0.81" d="M379.94 164.155L433.94 218.155" stroke="#F8006F" stroke-width="3.5"/>
<path opacity="0.81" d="M433.94 164.155L487.94 218.155" stroke="#F8006F" stroke-width="3.5"/>
<path opacity="0.81" d="M487.94 164.155L541.94 218.155" stroke="#F8006F" stroke-width="3.5"/>
<path opacity="0.81" d="M595.94 164.155L541.94 218.155" stroke="#F8006F" stroke-width="3.5"/>
<path opacity="0.81" d="M649.94 164.155L595.94 218.155" stroke="#F8006F" stroke-width="3.5"/>
<path opacity="0.81" d="M649.94 164.155L703.94 218.155" stroke="#F8006F" stroke-width="3.5"/>
<path opacity="0.81" d="M757.94 164.155L703.94 218.155" stroke="#F8006F" stroke-width="3.5"/>
<path opacity="0.81" d="M811.94 164.155L757.94 218.155" stroke="#F8006F" stroke-width="3.5"/>
<path opacity="0.81" d="M811.94 164.155L865.94 218.155" stroke="#F8006F" stroke-width="3.5"/>
<path opacity="0.81" d="M919.94 164.155L865.94 218.155" stroke="#F8006F" stroke-width="3.5"/>
<path opacity="0.81" d="M973.94 164.155L919.94 218.155" stroke="#F8006F" stroke-width="3.5"/>
<path opacity="0.81" d="M1027.94 164.155L973.94 218.155" stroke="#F8006F" stroke-width="3.5"/>
<path opacity="0.81" d="M1027.94 164.155L1081.94 218.155" stroke="#F8006F" stroke-width="3.5"/>
<path opacity="0.81" d="M1135.94 164.155L1081.94 218.155" stroke="#F8006F" stroke-width="3.5"/>
<path opacity="0.81" d="M1135.94 164.155L1189.94 218.155" stroke="#F8006F" stroke-width="3.5"/>
<path opacity="0.81" d="M1189.94 164.155L1243.94 218.155" stroke="#F8006F" stroke-width="3.5"/>
<path opacity="0.81" d="M1243.94 164.155L1297.94 218.155" stroke="#F8006F" stroke-width="3.5"/>
<path opacity="0.81" d="M1297.94 164.155L1351.94 218.155" stroke="#F8006F" stroke-width="3.5"/>
<path opacity="0.81" d="M1351.94 164.155L1405.94 218.155" stroke="#F8006F" stroke-width="3.5"/>
<path opacity="0.81" d="M1405.94 164.155L1459.94 218.155" stroke="#F8006F" stroke-width="3.5"/>
<path opacity="0.74" d="M1.94028 218.155L55.9403 272.155" stroke="#F8006F" stroke-width="3.5"/>
<path opacity="0.74" d="M55.9403 218.155L109.94 272.155" stroke="#F8006F" stroke-width="3.5"/>
<path opacity="0.74" d="M109.94 218.155L163.94 272.155" stroke="#F8006F" stroke-width="3.5"/>
<path opacity="0.74" d="M217.94 218.155L163.94 272.155" stroke="#F8006F" stroke-width="3.5"/>
<path opacity="0.74" d="M217.94 218.155L271.94 272.155" stroke="#F8006F" stroke-width="3.5"/>
<path opacity="0.74" d="M325.94 218.155L271.94 272.155" stroke="#F8006F" stroke-width="3.5"/>
<path opacity="0.74" d="M379.94 218.155L325.94 272.155" stroke="#F8006F" stroke-width="3.5"/>
<path opacity="0.74" d="M433.94 218.155L379.94 272.155" stroke="#F8006F" stroke-width="3.5"/>
<path opacity="0.74" d="M433.94 218.155L487.94 272.155" stroke="#F8006F" stroke-width="3.5"/>
<path opacity="0.74" d="M541.94 218.155L487.94 272.155" stroke="#F8006F" stroke-width="3.5"/>
<path opacity="0.74" d="M595.94 218.155L541.94 272.155" stroke="#F8006F" stroke-width="3.5"/>
<path opacity="0.74" d="M595.94 218.155L649.94 272.155" stroke="#F8006F" stroke-width="3.5"/>
<path opacity="0.74" d="M649.94 218.155L703.94 272.155" stroke="#F8006F" stroke-width="3.5"/>
<path opacity="0.74" d="M703.94 218.155L757.94 272.155" stroke="#F8006F" stroke-width="3.5"/>
<path opacity="0.74" d="M811.94 218.155L757.94 272.155" stroke="#F8006F" stroke-width="3.5"/>
<path opacity="0.74" d="M865.94 218.155L811.94 272.155" stroke="#F8006F" stroke-width="3.5"/>
<path opacity="0.74" d="M865.94 218.155L919.94 272.155" stroke="#F8006F" stroke-width="3.5"/>
<path opacity="0.74" d="M973.94 218.155L919.94 272.155" stroke="#F8006F" stroke-width="3.5"/>
<path opacity="0.74" d="M1027.94 218.155L973.94 272.155" stroke="#F8006F" stroke-width="3.5"/>
<path opacity="0.74" d="M1081.94 218.155L1027.94 272.155" stroke="#F8006F" stroke-width="3.5"/>
<path opacity="0.74" d="M1081.94 218.155L1135.94 272.155" stroke="#F8006F" stroke-width="3.5"/>
<path opacity="0.74" d="M1135.94 218.155L1189.94 272.155" stroke="#F8006F" stroke-width="3.5"/>
<path opacity="0.74" d="M1243.94 218.155L1189.94 272.155" stroke="#F8006F" stroke-width="3.5"/>
<path opacity="0.74" d="M1243.94 218.155L1297.94 272.155" stroke="#F8006F" stroke-width="3.5"/>
<path opacity="0.74" d="M1351.94 218.155L1297.94 272.155" stroke="#F8006F" stroke-width="3.5"/>
<path opacity="0.74" d="M1351.94 218.155L1405.94 272.155" stroke="#F8006F" stroke-width="3.5"/>
<path opacity="0.74" d="M1405.94 218.155L1459.94 272.155" stroke="#F8006F" stroke-width="3.5"/>
<path opacity="0.68" d="M1.94028 272.155L55.9403 326.155" stroke="#F8006F" stroke-width="3.5"/>
<path opacity="0.68" d="M55.9403 272.155L109.94 326.155" stroke="#F8006F" stroke-width="3.5"/>
<path opacity="0.68" d="M163.94 272.155L109.94 326.155" stroke="#F8006F" stroke-width="3.5"/>
<path opacity="0.68" d="M163.94 272.155L217.94 326.155" stroke="#F8006F" stroke-width="3.5"/>
<path opacity="0.68" d="M271.94 272.155L217.94 326.155" stroke="#F8006F" stroke-width="3.5"/>
<path opacity="0.68" d="M271.94 272.155L325.94 326.155" stroke="#F8006F" stroke-width="3.5"/>
<path opacity="0.68" d="M379.94 272.155L325.94 326.155" stroke="#F8006F" stroke-width="3.5"/>
<path opacity="0.68" d="M379.94 272.155L433.94 326.155" stroke="#F8006F" stroke-width="3.5"/>
<path opacity="0.68" d="M433.94 272.155L487.94 326.155" stroke="#F8006F" stroke-width="3.5"/>
<path opacity="0.68" d="M541.94 272.155L487.94 326.155" stroke="#F8006F" stroke-width="3.5"/>
<path opacity="0.68" d="M595.94 272.155L541.94 326.155" stroke="#F8006F" stroke-width="3.5"/>
<path opacity="0.68" d="M649.94 272.155L595.94 326.155" stroke="#F8006F" stroke-width="3.5"/>
<path opacity="0.68" d="M703.94 272.155L649.94 326.155" stroke="#F8006F" stroke-width="3.5"/>
<path opacity="0.68" d="M703.94 272.155L757.94 326.155" stroke="#F8006F" stroke-width="3.5"/>
<path opacity="0.68" d="M811.94 272.155L757.94 326.155" stroke="#F8006F" stroke-width="3.5"/>
<path opacity="0.68" d="M865.94 272.155L811.94 326.155" stroke="#F8006F" stroke-width="3.5"/>
<path opacity="0.68" d="M865.94 272.155L919.94 326.155" stroke="#F8006F" stroke-width="3.5"/>
<path opacity="0.68" d="M973.94 272.155L919.94 326.155" stroke="#F8006F" stroke-width="3.5"/>
<path opacity="0.68" d="M1027.94 272.155L973.94 326.155" stroke="#F8006F" stroke-width="3.5"/>
<path opacity="0.68" d="M1027.94 272.155L1081.94 326.155" stroke="#F8006F" stroke-width="3.5"/>
<path opacity="0.68" d="M1135.94 272.155L1081.94 326.155" stroke="#F8006F" stroke-width="3.5"/>
<path opacity="0.68" d="M1189.94 272.155L1135.94 326.155" stroke="#F8006F" stroke-width="3.5"/>
<path opacity="0.68" d="M1243.94 272.155L1189.94 326.155" stroke="#F8006F" stroke-width="3.5"/>
<path opacity="0.68" d="M1243.94 272.155L1297.94 326.155" stroke="#F8006F" stroke-width="3.5"/>
<path opacity="0.68" d="M1297.94 272.155L1351.94 326.155" stroke="#F8006F" stroke-width="3.5"/>
<path opacity="0.68" d="M1405.94 272.155L1351.94 326.155" stroke="#F8006F" stroke-width="3.5"/>
<path opacity="0.68" d="M1459.94 272.155L1405.94 326.155" stroke="#F8006F" stroke-width="3.5"/>
<path opacity="0.62" d="M1.94028 326.155L55.9403 380.155" stroke="#F8006F" stroke-width="3.5"/>
<path opacity="0.62" d="M55.9403 326.155L109.94 380.155" stroke="#F8006F" stroke-width="3.5"/>
<path opacity="0.62" d="M163.94 326.155L109.94 380.155" stroke="#F8006F" stroke-width="3.5"/>
<path opacity="0.62" d="M163.94 326.155L217.94 380.155" stroke="#F8006F" stroke-width="3.5"/>
<path opacity="0.62" d="M217.94 326.155L271.94 380.155" stroke="#F8006F" stroke-width="3.5"/>
<path opacity="0.62" d="M325.94 326.155L271.94 380.155" stroke="#F8006F" stroke-width="3.5"/>
<path opacity="0.62" d="M379.94 326.155L325.94 380.155" stroke="#F8006F" stroke-width="3.5"/>
<path opacity="0.62" d="M433.94 326.155L379.94 380.155" stroke="#F8006F" stroke-width="3.5"/>
<path opacity="0.62" d="M487.94 326.155L433.94 380.155" stroke="#F8006F" stroke-width="3.5"/>
<path opacity="0.62" d="M487.94 326.155L541.94 380.155" stroke="#F8006F" stroke-width="3.5"/>
<path opacity="0.62" d="M595.94 326.155L541.94 380.155" stroke="#F8006F" stroke-width="3.5"/>
<path opacity="0.62" d="M649.94 326.155L595.94 380.155" stroke="#F8006F" stroke-width="3.5"/>
<path opacity="0.62" d="M703.94 326.155L649.94 380.155" stroke="#F8006F" stroke-width="3.5"/>
<path opacity="0.62" d="M703.94 326.155L757.94 380.155" stroke="#F8006F" stroke-width="3.5"/>
<path opacity="0.62" d="M811.94 326.155L757.94 380.155" stroke="#F8006F" stroke-width="3.5"/>
<path opacity="0.62" d="M811.94 326.155L865.94 380.155" stroke="#F8006F" stroke-width="3.5"/>
<path opacity="0.62" d="M865.94 326.155L919.94 380.155" stroke="#F8006F" stroke-width="3.5"/>
<path opacity="0.62" d="M973.94 326.155L919.94 380.155" stroke="#F8006F" stroke-width="3.5"/>
<path opacity="0.62" d="M1027.94 326.155L973.94 380.155" stroke="#F8006F" stroke-width="3.5"/>
<path opacity="0.62" d="M1027.94 326.155L1081.94 380.155" stroke="#F8006F" stroke-width="3.5"/>
<path opacity="0.62" d="M1081.94 326.155L1135.94 380.155" stroke="#F8006F" stroke-width="3.5"/>
<path opacity="0.62" d="M1189.94 326.155L1135.94 380.155" stroke="#F8006F" stroke-width="3.5"/>
<path opacity="0.62" d="M1243.94 326.155L1189.94 380.155" stroke="#F8006F" stroke-width="3.5"/>
<path opacity="0.62" d="M1297.94 326.155L1243.94 380.155" stroke="#F8006F" stroke-width="3.5"/>
<path opacity="0.62" d="M1351.94 326.155L1297.94 380.155" stroke="#F8006F" stroke-width="3.5"/>
<path opacity="0.62" d="M1351.94 326.155L1405.94 380.155" stroke="#F8006F" stroke-width="3.5"/>
<path opacity="0.62" d="M1405.94 326.155L1459.94 380.155" stroke="#F8006F" stroke-width="3.5"/>
<path opacity="0.55" d="M1.94028 380.155L55.9403 434.155" stroke="#F8006F" stroke-width="3.5"/>
<path opacity="0.55" d="M55.9403 380.155L109.94 434.155" stroke="#F8006F" stroke-width="3.5"/>
<path opacity="0.55" d="M109.94 380.155L163.94 434.155" stroke="#F8006F" stroke-width="3.5"/>
<path opacity="0.55" d="M163.94 380.155L217.94 434.155" stroke="#F8006F" stroke-width="3.5"/>
<path opacity="0.55" d="M217.94 380.155L271.94 434.155" stroke="#F8006F" stroke-width="3.5"/>
<path opacity="0.55" d="M325.94 380.155L271.94 434.155" stroke="#F8006F" stroke-width="3.5"/>
<path opacity="0.55" d="M379.94 380.155L325.94 434.155" stroke="#F8006F" stroke-width="3.5"/>
<path opacity="0.55" d="M433.94 380.155L379.94 434.155" stroke="#F8006F" stroke-width="3.5"/>
<path opacity="0.55" d="M433.94 380.155L487.94 434.155" stroke="#F8006F" stroke-width="3.5"/>
<path opacity="0.55" d="M487.94 380.155L541.94 434.155" stroke="#F8006F" stroke-width="3.5"/>
<path opacity="0.55" d="M541.94 380.155L595.94 434.155" stroke="#F8006F" stroke-width="3.5"/>
<path opacity="0.55" d="M649.94 380.155L595.94 434.155" stroke="#F8006F" stroke-width="3.5"/>
<path opacity="0.55" d="M703.94 380.155L649.94 434.155" stroke="#F8006F" stroke-width="3.5"/>
<path opacity="0.55" d="M703.94 380.155L757.94 434.155" stroke="#F8006F" stroke-width="3.5"/>
<path opacity="0.55" d="M757.94 380.155L811.94 434.155" stroke="#F8006F" stroke-width="3.5"/>
<path opacity="0.55" d="M811.94 380.155L865.94 434.155" stroke="#F8006F" stroke-width="3.5"/>
<path opacity="0.55" d="M865.94 380.155L919.94 434.155" stroke="#F8006F" stroke-width="3.5"/>
<path opacity="0.55" d="M919.94 380.155L973.94 434.155" stroke="#F8006F" stroke-width="3.5"/>
<path opacity="0.55" d="M1027.94 380.155L973.94 434.155" stroke="#F8006F" stroke-width="3.5"/>
<path opacity="0.55" d="M1027.94 380.155L1081.94 434.155" stroke="#F8006F" stroke-width="3.5"/>
<path opacity="0.55" d="M1081.94 380.155L1135.94 434.155" stroke="#F8006F" stroke-width="3.5"/>
<path opacity="0.55" d="M1189.94 380.155L1135.94 434.155" stroke="#F8006F" stroke-width="3.5"/>
<path opacity="0.55" d="M1189.94 380.155L1243.94 434.155" stroke="#F8006F" stroke-width="3.5"/>
<path opacity="0.55" d="M1297.94 380.155L1243.94 434.155" stroke="#F8006F" stroke-width="3.5"/>
<path opacity="0.55" d="M1297.94 380.155L1351.94 434.155" stroke="#F8006F" stroke-width="3.5"/>
<path opacity="0.55" d="M1405.94 380.155L1351.94 434.155" stroke="#F8006F" stroke-width="3.5"/>
<path opacity="0.55" d="M1459.94 380.155L1405.94 434.155" stroke="#F8006F" stroke-width="3.5"/>
<path opacity="0.49" d="M55.9403 434.155L1.94028 488.155" stroke="#F8006F" stroke-width="3.5"/>
<path opacity="0.49" d="M55.9403 434.155L109.94 488.155" stroke="#F8006F" stroke-width="3.5"/>
<path opacity="0.49" d="M109.94 434.155L163.94 488.155" stroke="#F8006F" stroke-width="3.5"/>
<path opacity="0.49" d="M163.94 434.155L217.94 488.155" stroke="#F8006F" stroke-width="3.5"/>
<path opacity="0.49" d="M217.94 434.155L271.94 488.155" stroke="#F8006F" stroke-width="3.5"/>
<path opacity="0.49" d="M325.94 434.155L271.94 488.155" stroke="#F8006F" stroke-width="3.5"/>
<path opacity="0.49" d="M325.94 434.155L379.94 488.155" stroke="#F8006F" stroke-width="3.5"/>
<path opacity="0.49" d="M433.94 434.155L379.94 488.155" stroke="#F8006F" stroke-width="3.5"/>
<path opacity="0.49" d="M433.94 434.155L487.94 488.155" stroke="#F8006F" stroke-width="3.5"/>
<path opacity="0.49" d="M541.94 434.155L487.94 488.155" stroke="#F8006F" stroke-width="3.5"/>
<path opacity="0.49" d="M541.94 434.155L595.94 488.155" stroke="#F8006F" stroke-width="3.5"/>
<path opacity="0.49" d="M595.94 434.155L649.94 488.155" stroke="#F8006F" stroke-width="3.5"/>
<path opacity="0.49" d="M703.94 434.155L649.94 488.155" stroke="#F8006F" stroke-width="3.5"/>
<path opacity="0.49" d="M703.94 434.155L757.94 488.155" stroke="#F8006F" stroke-width="3.5"/>
<path opacity="0.49" d="M757.94 434.155L811.94 488.155" stroke="#F8006F" stroke-width="3.5"/>
<path opacity="0.49" d="M811.94 434.155L865.94 488.155" stroke="#F8006F" stroke-width="3.5"/>
<path opacity="0.49" d="M865.94 434.155L919.94 488.155" stroke="#F8006F" stroke-width="3.5"/>
<path opacity="0.49" d="M973.94 434.155L919.94 488.155" stroke="#F8006F" stroke-width="3.5"/>
<path opacity="0.49" d="M973.94 434.155L1027.94 488.155" stroke="#F8006F" stroke-width="3.5"/>
<path opacity="0.49" d="M1081.94 434.155L1027.94 488.155" stroke="#F8006F" stroke-width="3.5"/>
<path opacity="0.49" d="M1135.94 434.155L1081.94 488.155" stroke="#F8006F" stroke-width="3.5"/>
<path opacity="0.49" d="M1135.94 434.155L1189.94 488.155" stroke="#F8006F" stroke-width="3.5"/>
<path opacity="0.49" d="M1243.94 434.155L1189.94 488.155" stroke="#F8006F" stroke-width="3.5"/>
<path opacity="0.49" d="M1243.94 434.155L1297.94 488.155" stroke="#F8006F" stroke-width="3.5"/>
<path opacity="0.49" d="M1297.94 434.155L1351.94 488.155" stroke="#F8006F" stroke-width="3.5"/>
<path opacity="0.49" d="M1405.94 434.155L1351.94 488.155" stroke="#F8006F" stroke-width="3.5"/>
<path opacity="0.49" d="M1459.94 434.155L1405.94 488.155" stroke="#F8006F" stroke-width="3.5"/>
<path opacity="0.42" d="M1.94028 488.155L55.9403 542.155" stroke="#F8006F" stroke-width="3.5"/>
<path opacity="0.42" d="M109.94 488.155L55.9403 542.155" stroke="#F8006F" stroke-width="3.5"/>
<path opacity="0.42" d="M109.94 488.155L163.94 542.155" stroke="#F8006F" stroke-width="3.5"/>
<path opacity="0.42" d="M217.94 488.155L163.94 542.155" stroke="#F8006F" stroke-width="3.5"/>
<path opacity="0.42" d="M217.94 488.155L271.94 542.155" stroke="#F8006F" stroke-width="3.5"/>
<path opacity="0.42" d="M325.94 488.155L271.94 542.155" stroke="#F8006F" stroke-width="3.5"/>
<path opacity="0.42" d="M379.94 488.155L325.94 542.155" stroke="#F8006F" stroke-width="3.5"/>
<path opacity="0.42" d="M433.94 488.155L379.94 542.155" stroke="#F8006F" stroke-width="3.5"/>
<path opacity="0.42" d="M433.94 488.155L487.94 542.155" stroke="#F8006F" stroke-width="3.5"/>
<path opacity="0.42" d="M541.94 488.155L487.94 542.155" stroke="#F8006F" stroke-width="3.5"/>
<path opacity="0.42" d="M595.94 488.155L541.94 542.155" stroke="#F8006F" stroke-width="3.5"/>
<path opacity="0.42" d="M649.94 488.155L595.94 542.155" stroke="#F8006F" stroke-width="3.5"/>
<path opacity="0.42" d="M703.94 488.155L649.94 542.155" stroke="#F8006F" stroke-width="3.5"/>
<path opacity="0.42" d="M703.94 488.155L757.94 542.155" stroke="#F8006F" stroke-width="3.5"/>
<path opacity="0.42" d="M811.94 488.155L757.94 542.155" stroke="#F8006F" stroke-width="3.5"/>
<path opacity="0.42" d="M865.94 488.155L811.94 542.155" stroke="#F8006F" stroke-width="3.5"/>
<path opacity="0.42" d="M919.94 488.155L865.94 542.155" stroke="#F8006F" stroke-width="3.5"/>
<path opacity="0.42" d="M919.94 488.155L973.94 542.155" stroke="#F8006F" stroke-width="3.5"/>
<path opacity="0.42" d="M1027.94 488.155L973.94 542.155" stroke="#F8006F" stroke-width="3.5"/>
<path opacity="0.42" d="M1027.94 488.155L1081.94 542.155" stroke="#F8006F" stroke-width="3.5"/>
<path opacity="0.42" d="M1081.94 488.155L1135.94 542.155" stroke="#F8006F" stroke-width="3.5"/>
<path opacity="0.42" d="M1189.94 488.155L1135.94 542.155" stroke="#F8006F" stroke-width="3.5"/>
<path opacity="0.42" d="M1243.94 488.155L1189.94 542.155" stroke="#F8006F" stroke-width="3.5"/>
<path opacity="0.42" d="M1297.94 488.155L1243.94 542.155" stroke="#F8006F" stroke-width="3.5"/>
<path opacity="0.42" d="M1297.94 488.155L1351.94 542.155" stroke="#F8006F" stroke-width="3.5"/>
<path opacity="0.42" d="M1405.94 488.155L1351.94 542.155" stroke="#F8006F" stroke-width="3.5"/>
<path opacity="0.42" d="M1459.94 488.155L1405.94 542.155" stroke="#F8006F" stroke-width="3.5"/>
<path opacity="0.36" d="M1.94028 542.155L55.9403 596.155" stroke="#F8006F" stroke-width="3.5"/>
<path opacity="0.36" d="M55.9403 542.155L109.94 596.155" stroke="#F8006F" stroke-width="3.5"/>
<path opacity="0.36" d="M163.94 542.155L109.94 596.155" stroke="#F8006F" stroke-width="3.5"/>
<path opacity="0.36" d="M217.94 542.155L163.94 596.155" stroke="#F8006F" stroke-width="3.5"/>
<path opacity="0.36" d="M217.94 542.155L271.94 596.155" stroke="#F8006F" stroke-width="3.5"/>
<path opacity="0.36" d="M325.94 542.155L271.94 596.155" stroke="#F8006F" stroke-width="3.5"/>
<path opacity="0.36" d="M325.94 542.155L379.94 596.155" stroke="#F8006F" stroke-width="3.5"/>
<path opacity="0.36" d="M433.94 542.155L379.94 596.155" stroke="#F8006F" stroke-width="3.5"/>
<path opacity="0.36" d="M433.94 542.155L487.94 596.155" stroke="#F8006F" stroke-width="3.5"/>
<path opacity="0.36" d="M487.94 542.155L541.94 596.155" stroke="#F8006F" stroke-width="3.5"/>
<path opacity="0.36" d="M595.94 542.155L541.94 596.155" stroke="#F8006F" stroke-width="3.5"/>
<path opacity="0.36" d="M595.94 542.155L649.94 596.155" stroke="#F8006F" stroke-width="3.5"/>
<path opacity="0.36" d="M703.94 542.155L649.94 596.155" stroke="#F8006F" stroke-width="3.5"/>
<path opacity="0.36" d="M703.94 542.155L757.94 596.155" stroke="#F8006F" stroke-width="3.5"/>
<path opacity="0.36" d="M811.94 542.155L757.94 596.155" stroke="#F8006F" stroke-width="3.5"/>
<path opacity="0.36" d="M811.94 542.155L865.94 596.155" stroke="#F8006F" stroke-width="3.5"/>
<path opacity="0.36" d="M919.94 542.155L865.94 596.155" stroke="#F8006F" stroke-width="3.5"/>
<path opacity="0.36" d="M919.94 542.155L973.94 596.155" stroke="#F8006F" stroke-width="3.5"/>
<path opacity="0.36" d="M1027.94 542.155L973.94 596.155" stroke="#F8006F" stroke-width="3.5"/>
<path opacity="0.36" d="M1081.94 542.155L1027.94 596.155" stroke="#F8006F" stroke-width="3.5"/>
<path opacity="0.36" d="M1081.94 542.155L1135.94 596.155" stroke="#F8006F" stroke-width="3.5"/>
<path opacity="0.36" d="M1189.94 542.155L1135.94 596.155" stroke="#F8006F" stroke-width="3.5"/>
<path opacity="0.36" d="M1243.94 542.155L1189.94 596.155" stroke="#F8006F" stroke-width="3.5"/>
<path opacity="0.36" d="M1243.94 542.155L1297.94 596.155" stroke="#F8006F" stroke-width="3.5"/>
<path opacity="0.36" d="M1351.94 542.155L1297.94 596.155" stroke="#F8006F" stroke-width="3.5"/>
<path opacity="0.36" d="M1351.94 542.155L1405.94 596.155" stroke="#F8006F" stroke-width="3.5"/>
<path opacity="0.36" d="M1459.94 542.155L1405.94 596.155" stroke="#F8006F" stroke-width="3.5"/>
<path opacity="0.29" d="M1.94028 596.155L55.9403 650.155" stroke="#F8006F" stroke-width="3.5"/>
<path opacity="0.29" d="M109.94 596.155L55.9403 650.155" stroke="#F8006F" stroke-width="3.5"/>
<path opacity="0.29" d="M163.94 596.155L109.94 650.155" stroke="#F8006F" stroke-width="3.5"/>
<path opacity="0.29" d="M163.94 596.155L217.94 650.155" stroke="#F8006F" stroke-width="3.5"/>
<path opacity="0.29" d="M271.94 596.155L217.94 650.155" stroke="#F8006F" stroke-width="3.5"/>
<path opacity="0.29" d="M271.94 596.155L325.94 650.155" stroke="#F8006F" stroke-width="3.5"/>
<path opacity="0.29" d="M325.94 596.155L379.94 650.155" stroke="#F8006F" stroke-width="3.5"/>
<path opacity="0.29" d="M433.94 596.155L379.94 650.155" stroke="#F8006F" stroke-width="3.5"/>
<path opacity="0.29" d="M487.94 596.155L433.94 650.155" stroke="#F8006F" stroke-width="3.5"/>
<path opacity="0.29" d="M541.94 596.155L487.94 650.155" stroke="#F8006F" stroke-width="3.5"/>
<path opacity="0.29" d="M541.94 596.155L595.94 650.155" stroke="#F8006F" stroke-width="3.5"/>
<path opacity="0.29" d="M595.94 596.155L649.94 650.155" stroke="#F8006F" stroke-width="3.5"/>
<path opacity="0.29" d="M703.94 596.155L649.94 650.155" stroke="#F8006F" stroke-width="3.5"/>
<path opacity="0.29" d="M757.94 596.155L703.94 650.155" stroke="#F8006F" stroke-width="3.5"/>
<path opacity="0.29" d="M811.94 596.155L757.94 650.155" stroke="#F8006F" stroke-width="3.5"/>
<path opacity="0.29" d="M865.94 596.155L811.94 650.155" stroke="#F8006F" stroke-width="3.5"/>
<path opacity="0.29" d="M865.94 596.155L919.94 650.155" stroke="#F8006F" stroke-width="3.5"/>
<path opacity="0.29" d="M919.94 596.155L973.94 650.155" stroke="#F8006F" stroke-width="3.5"/>
<path opacity="0.29" d="M1027.94 596.155L973.94 650.155" stroke="#F8006F" stroke-width="3.5"/>
<path opacity="0.29" d="M1027.94 596.155L1081.94 650.155" stroke="#F8006F" stroke-width="3.5"/>
<path opacity="0.29" d="M1081.94 596.155L1135.94 650.155" stroke="#F8006F" stroke-width="3.5"/>
<path opacity="0.29" d="M1189.94 596.155L1135.94 650.155" stroke="#F8006F" stroke-width="3.5"/>
<path opacity="0.29" d="M1189.94 596.155L1243.94 650.155" stroke="#F8006F" stroke-width="3.5"/>
<path opacity="0.29" d="M1243.94 596.155L1297.94 650.155" stroke="#F8006F" stroke-width="3.5"/>
<path opacity="0.29" d="M1297.94 596.155L1351.94 650.155" stroke="#F8006F" stroke-width="3.5"/>
<path opacity="0.29" d="M1351.94 596.155L1405.94 650.155" stroke="#F8006F" stroke-width="3.5"/>
<path opacity="0.29" d="M1459.94 596.155L1405.94 650.155" stroke="#F8006F" stroke-width="3.5"/>
<path opacity="0.23" d="M55.9403 650.155L1.94028 704.155" stroke="#F8006F" stroke-width="3.5"/>
<path opacity="0.23" d="M109.94 650.155L55.9403 704.155" stroke="#F8006F" stroke-width="3.5"/>
<path opacity="0.23" d="M163.94 650.155L109.94 704.155" stroke="#F8006F" stroke-width="3.5"/>
<path opacity="0.23" d="M163.94 650.155L217.94 704.155" stroke="#F8006F" stroke-width="3.5"/>
<path opacity="0.23" d="M217.94 650.155L271.94 704.155" stroke="#F8006F" stroke-width="3.5"/>
<path opacity="0.23" d="M325.94 650.155L271.94 704.155" stroke="#F8006F" stroke-width="3.5"/>
<path opacity="0.23" d="M325.94 650.155L379.94 704.155" stroke="#F8006F" stroke-width="3.5"/>
<path opacity="0.23" d="M379.94 650.155L433.94 704.155" stroke="#F8006F" stroke-width="3.5"/>
<path opacity="0.23" d="M487.94 650.155L433.94 704.155" stroke="#F8006F" stroke-width="3.5"/>
<path opacity="0.23" d="M487.94 650.155L541.94 704.155" stroke="#F8006F" stroke-width="3.5"/>
<path opacity="0.23" d="M595.94 650.155L541.94 704.155" stroke="#F8006F" stroke-width="3.5"/>
<path opacity="0.23" d="M649.94 650.155L595.94 704.155" stroke="#F8006F" stroke-width="3.5"/>
<path opacity="0.23" d="M649.94 650.155L703.94 704.155" stroke="#F8006F" stroke-width="3.5"/>
<path opacity="0.23" d="M757.94 650.155L703.94 704.155" stroke="#F8006F" stroke-width="3.5"/>
<path opacity="0.23" d="M757.94 650.155L811.94 704.155" stroke="#F8006F" stroke-width="3.5"/>
<path opacity="0.23" d="M865.94 650.155L811.94 704.155" stroke="#F8006F" stroke-width="3.5"/>
<path opacity="0.23" d="M919.94 650.155L865.94 704.155" stroke="#F8006F" stroke-width="3.5"/>
<path opacity="0.23" d="M919.94 650.155L973.94 704.155" stroke="#F8006F" stroke-width="3.5"/>
<path opacity="0.23" d="M1027.94 650.155L973.94 704.155" stroke="#F8006F" stroke-width="3.5"/>
<path opacity="0.23" d="M1027.94 650.155L1081.94 704.155" stroke="#F8006F" stroke-width="3.5"/>
<path opacity="0.23" d="M1081.94 650.155L1135.94 704.155" stroke="#F8006F" stroke-width="3.5"/>
<path opacity="0.23" d="M1135.94 650.155L1189.94 704.155" stroke="#F8006F" stroke-width="3.5"/>
<path opacity="0.23" d="M1189.94 650.155L1243.94 704.155" stroke="#F8006F" stroke-width="3.5"/>
<path opacity="0.23" d="M1243.94 650.155L1297.94 704.155" stroke="#F8006F" stroke-width="3.5"/>
<path opacity="0.23" d="M1297.94 650.155L1351.94 704.155" stroke="#F8006F" stroke-width="3.5"/>
<path opacity="0.23" d="M1351.94 650.155L1405.94 704.155" stroke="#F8006F" stroke-width="3.5"/>
<path opacity="0.23" d="M1405.94 650.155L1459.94 704.155" stroke="#F8006F" stroke-width="3.5"/>
<path opacity="0.17" d="M55.9403 704.155L1.94028 758.155" stroke="#F8006F" stroke-width="3.5"/>
<path opacity="0.17" d="M55.9403 704.155L109.94 758.155" stroke="#F8006F" stroke-width="3.5"/>
<path opacity="0.17" d="M163.94 704.155L109.94 758.155" stroke="#F8006F" stroke-width="3.5"/>
<path opacity="0.17" d="M217.94 704.155L163.94 758.155" stroke="#F8006F" stroke-width="3.5"/>
<path opacity="0.17" d="M217.94 704.155L271.94 758.155" stroke="#F8006F" stroke-width="3.5"/>
<path opacity="0.17" d="M325.94 704.155L271.94 758.155" stroke="#F8006F" stroke-width="3.5"/>
<path opacity="0.17" d="M325.94 704.155L379.94 758.155" stroke="#F8006F" stroke-width="3.5"/>
<path opacity="0.17" d="M379.94 704.155L433.94 758.155" stroke="#F8006F" stroke-width="3.5"/>
<path opacity="0.17" d="M487.94 704.155L433.94 758.155" stroke="#F8006F" stroke-width="3.5"/>
<path opacity="0.17" d="M541.94 704.155L487.94 758.155" stroke="#F8006F" stroke-width="3.5"/>
<path opacity="0.17" d="M541.94 704.155L595.94 758.155" stroke="#F8006F" stroke-width="3.5"/>
<path opacity="0.17" d="M595.94 704.155L649.94 758.155" stroke="#F8006F" stroke-width="3.5"/>
<path opacity="0.17" d="M703.94 704.155L649.94 758.155" stroke="#F8006F" stroke-width="3.5"/>
<path opacity="0.17" d="M757.94 704.155L703.94 758.155" stroke="#F8006F" stroke-width="3.5"/>
<path opacity="0.17" d="M757.94 704.155L811.94 758.155" stroke="#F8006F" stroke-width="3.5"/>
<path opacity="0.17" d="M811.94 704.155L865.94 758.155" stroke="#F8006F" stroke-width="3.5"/>
<path opacity="0.17" d="M865.94 704.155L919.94 758.155" stroke="#F8006F" stroke-width="3.5"/>
<path opacity="0.17" d="M973.94 704.155L919.94 758.155" stroke="#F8006F" stroke-width="3.5"/>
<path opacity="0.17" d="M1027.94 704.155L973.94 758.155" stroke="#F8006F" stroke-width="3.5"/>
<path opacity="0.17" d="M1081.94 704.155L1027.94 758.155" stroke="#F8006F" stroke-width="3.5"/>
<path opacity="0.17" d="M1135.94 704.155L1081.94 758.155" stroke="#F8006F" stroke-width="3.5"/>
<path opacity="0.17" d="M1135.94 704.155L1189.94 758.155" stroke="#F8006F" stroke-width="3.5"/>
<path opacity="0.17" d="M1243.94 704.155L1189.94 758.155" stroke="#F8006F" stroke-width="3.5"/>
<path opacity="0.17" d="M1297.94 704.155L1243.94 758.155" stroke="#F8006F" stroke-width="3.5"/>
<path opacity="0.17" d="M1351.94 704.155L1297.94 758.155" stroke="#F8006F" stroke-width="3.5"/>
<path opacity="0.17" d="M1351.94 704.155L1405.94 758.155" stroke="#F8006F" stroke-width="3.5"/>
<path opacity="0.17" d="M1459.94 704.155L1405.94 758.155" stroke="#F8006F" stroke-width="3.5"/>
<path opacity="0.1" d="M55.9403 758.155L1.94028 812.155" stroke="#F8006F" stroke-width="3.5"/>
<path opacity="0.1" d="M55.9403 758.155L109.94 812.155" stroke="#F8006F" stroke-width="3.5"/>
<path opacity="0.1" d="M109.94 758.155L163.94 812.155" stroke="#F8006F" stroke-width="3.5"/>
<path opacity="0.1" d="M217.94 758.155L163.94 812.155" stroke="#F8006F" stroke-width="3.5"/>
<path opacity="0.1" d="M217.94 758.155L271.94 812.155" stroke="#F8006F" stroke-width="3.5"/>
<path opacity="0.1" d="M271.94 758.155L325.94 812.155" stroke="#F8006F" stroke-width="3.5"/>
<path opacity="0.1" d="M325.94 758.155L379.94 812.155" stroke="#F8006F" stroke-width="3.5"/>
<path opacity="0.1" d="M433.94 758.155L379.94 812.155" stroke="#F8006F" stroke-width="3.5"/>
<path opacity="0.1" d="M433.94 758.155L487.94 812.155" stroke="#F8006F" stroke-width="3.5"/>
<path opacity="0.1" d="M487.94 758.155L541.94 812.155" stroke="#F8006F" stroke-width="3.5"/>
<path opacity="0.1" d="M595.94 758.155L541.94 812.155" stroke="#F8006F" stroke-width="3.5"/>
<path opacity="0.1" d="M649.94 758.155L595.94 812.155" stroke="#F8006F" stroke-width="3.5"/>
<path opacity="0.1" d="M703.94 758.155L649.94 812.155" stroke="#F8006F" stroke-width="3.5"/>
<path opacity="0.1" d="M757.94 758.155L703.94 812.155" stroke="#F8006F" stroke-width="3.5"/>
<path opacity="0.1" d="M811.94 758.155L757.94 812.155" stroke="#F8006F" stroke-width="3.5"/>
<path opacity="0.1" d="M811.94 758.155L865.94 812.155" stroke="#F8006F" stroke-width="3.5"/>
<path opacity="0.1" d="M919.94 758.155L865.94 812.155" stroke="#F8006F" stroke-width="3.5"/>
<path opacity="0.1" d="M919.94 758.155L973.94 812.155" stroke="#F8006F" stroke-width="3.5"/>
<path opacity="0.1" d="M973.94 758.155L1027.94 812.155" stroke="#F8006F" stroke-width="3.5"/>
<path opacity="0.1" d="M1081.94 758.155L1027.94 812.155" stroke="#F8006F" stroke-width="3.5"/>
<path opacity="0.1" d="M1081.94 758.155L1135.94 812.155" stroke="#F8006F" stroke-width="3.5"/>
<path opacity="0.1" d="M1189.94 758.155L1135.94 812.155" stroke="#F8006F" stroke-width="3.5"/>
<path opacity="0.1" d="M1243.94 758.155L1189.94 812.155" stroke="#F8006F" stroke-width="3.5"/>
<path opacity="0.1" d="M1243.94 758.155L1297.94 812.155" stroke="#F8006F" stroke-width="3.5"/>
<path opacity="0.1" d="M1297.94 758.155L1351.94 812.155" stroke="#F8006F" stroke-width="3.5"/>
<path opacity="0.1" d="M1405.94 758.155L1351.94 812.155" stroke="#F8006F" stroke-width="3.5"/>
<path opacity="0.1" d="M1405.94 758.155L1459.94 812.155" stroke="#F8006F" stroke-width="3.5"/>
</svg>
