<svg width="24" height="25" viewBox="0 0 24 25" fill="none" xmlns="http://www.w3.org/2000/svg">
<path fill-rule="evenodd" clip-rule="evenodd" d="M8.19289 10.3196L15.5424 2.9823C16.746 1.78202 18.6966 1.78202 19.9001 2.9823L21.0972 4.17744C22.3009 5.37911 22.3009 7.32809 21.0972 8.52847L13.7126 15.9009C13.1739 16.4387 12.4434 16.741 11.6815 16.741H7.99751C7.58297 16.741 7.24985 16.4 7.26015 15.9863L7.3526 12.2748C7.37114 11.5398 7.67186 10.8398 8.19289 10.3196ZM20.0542 5.2188L18.8576 4.02422C18.23 3.39833 17.2125 3.39833 16.5852 4.02394L15.9806 4.62752L19.4496 8.09069L20.0544 7.48683C20.6816 6.86133 20.6816 5.84525 20.0542 5.2188ZM18.4065 9.13206L14.9375 5.66889L9.23598 11.361C8.98257 11.614 8.83631 11.9544 8.8273 12.3117L8.75298 15.2674L11.6815 15.2683C12.0057 15.2683 12.3183 15.1557 12.567 14.9522L12.6695 14.8595L18.4065 9.13206ZM11.3348 2.11999C11.7422 2.11999 12.0724 2.44967 12.0724 2.85635C12.0724 3.22913 11.7949 3.53722 11.4349 3.58598L11.3348 3.5927H7.65773C5.17793 3.5927 3.5717 5.23498 3.47937 7.78534L3.47516 8.01967V16.1824C3.47516 18.7906 5.00328 20.5062 7.43426 20.6049L7.65773 20.6094H16.3356C18.8216 20.6094 20.4229 18.9706 20.515 16.4171L20.5192 16.1824V12.2277C20.5192 11.821 20.8494 11.4913 21.2567 11.4913C21.6301 11.4913 21.9387 11.7684 21.9876 12.1278L21.9943 12.2277V16.1824C21.9943 19.5815 19.8376 21.9715 16.5657 22.0784L16.3356 22.0821H7.65773C4.33531 22.0821 2.10323 19.7692 2.00349 16.4179L2 16.1824V8.01967C2 4.62388 4.16225 2.23076 7.4281 2.12373L7.65773 2.11999H11.3348Z" fill="white"/>
</svg>
