<svg width="24" height="25" viewBox="0 0 24 25" fill="none" xmlns="http://www.w3.org/2000/svg">
<path fill-rule="evenodd" clip-rule="evenodd" d="M20.3395 8.20434C21.0095 8.72334 21.4205 9.49434 21.4905 10.3333L21.5005 10.5343V18.6433C21.5005 20.7333 19.8495 22.4333 17.7805 22.5433H15.7905C14.8395 22.5243 14.0705 21.7843 14.0005 20.8543L13.9905 20.7133V17.8543C13.9905 17.5433 13.7595 17.2843 13.4505 17.2333L13.3605 17.2233H10.6895C10.3705 17.2333 10.1105 17.4633 10.0705 17.7633L10.0605 17.8543V20.7043C10.0605 20.7633 10.0495 20.8333 10.0405 20.8833L10.0305 20.9043L10.0195 20.9733C9.90049 21.8243 9.20049 22.4733 8.33049 22.5343L8.20049 22.5433H6.41049C4.32049 22.5433 2.61049 20.9043 2.50049 18.8433V10.5343C2.50949 9.68334 2.88049 8.89334 3.50049 8.34334L9.73049 3.33334C11.0005 2.32434 12.7805 2.28434 14.0895 3.21334L14.2505 3.33334L20.3395 8.20434ZM20.0995 18.8033L20.1105 18.6433V10.5433C20.0995 10.1143 19.9205 9.71334 19.6105 9.41434L19.4805 9.30334L13.3805 4.42334C12.6205 3.81334 11.5405 3.78434 10.7405 4.31334L10.5895 4.42334L4.50949 9.32434C4.16049 9.58334 3.95049 9.97334 3.90049 10.3833L3.88949 10.5433V18.6433C3.88949 19.9733 4.92949 21.0633 6.25049 21.1433H8.20049C8.42049 21.1433 8.61049 20.9943 8.63949 20.7843L8.66049 20.6043L8.67049 20.5533V17.8543C8.67049 16.7843 9.49049 15.9143 10.5405 15.8333H13.3605C14.4295 15.8333 15.2995 16.6543 15.3805 17.7043V20.7133C15.3805 20.9233 15.5305 21.1043 15.7305 21.1433H17.5895C18.9295 21.1433 20.0195 20.1143 20.0995 18.8033Z" fill="white"/>
</svg>
