<svg width="24" height="25" viewBox="0 0 24 25" fill="none" xmlns="http://www.w3.org/2000/svg">
<path fill-rule="evenodd" clip-rule="evenodd" d="M21.7048 5.15801C22.0164 3.75234 20.7092 2.48395 19.2939 2.89354L3.63738 7.44928L3.48628 7.49951C2.0167 8.05258 1.79121 10.0993 3.16768 10.9467L9.64322 14.9325L13.539 21.3866L13.6265 21.5199C14.5398 22.7994 16.562 22.4895 17.0231 20.9385L21.6682 5.29897L21.7048 5.15801ZM19.7849 4.3197C20.0737 4.28869 20.3204 4.56959 20.2305 4.8712L15.5852 20.5112L15.5547 20.5879C15.4096 20.8734 14.9988 20.9025 14.8232 20.6116L11.1352 14.5025L16.3877 9.21622L16.4601 9.13186C16.6769 8.83752 16.6513 8.42094 16.3842 8.15556L16.2998 8.08323C16.0055 7.86635 15.5889 7.89194 15.3235 8.15909L10.0782 13.4385L3.95398 9.6693L3.88786 9.61965C3.65003 9.40299 3.73008 8.98428 4.05598 8.88969L19.7119 4.33411L19.7849 4.3197Z" fill="white"/>
</svg>
